<svg width="87" height="90" viewBox="0 0 87 90" fill="none" xmlns="http://www.w3.org/2000/svg">
<path d="M15.6626 21.0717C15.445 21.0717 15.2669 21.0025 15.1284 20.864C14.9899 20.7255 14.9207 20.5474 14.9207 20.3298V1.03875C14.9207 0.821105 14.9899 0.643034 15.1284 0.504535C15.2669 0.366035 15.445 0.296785 15.6626 0.296785H23.7648C25.3675 0.296785 26.7525 0.544106 27.9198 1.03875C29.107 1.53339 30.027 2.28524 30.6799 3.29431C31.3526 4.28359 31.689 5.5202 31.689 7.00412C31.689 8.50783 31.3526 9.75433 30.6799 10.7436C30.027 11.7131 29.107 12.4353 27.9198 12.9101C26.7525 13.385 25.3675 13.6224 23.7648 13.6224H19.7879V20.3298C19.7879 20.5474 19.7187 20.7255 19.5802 20.864C19.4417 21.0025 19.2636 21.0717 19.046 21.0717H15.6626ZM19.6989 9.94229H23.6164C24.6255 9.94229 25.407 9.69497 25.961 9.20033C26.5348 8.70569 26.8217 7.96373 26.8217 6.97444C26.8217 6.10387 26.5645 5.39159 26.0501 4.83759C25.5554 4.28359 24.7442 4.00659 23.6164 4.00659H19.6989V9.94229Z" fill="#01CC8E"/>
<path d="M35.4579 21.0717C35.2403 21.0717 35.0622 21.0025 34.9237 20.864C34.7852 20.7255 34.716 20.5474 34.716 20.3298V1.03875C34.716 0.821105 34.7852 0.643034 34.9237 0.504535C35.0622 0.366035 35.2403 0.296785 35.4579 0.296785H43.3227C45.7959 0.296785 47.7448 0.870569 49.1694 2.01814C50.594 3.14592 51.3062 4.77824 51.3062 6.91509C51.3062 8.35944 50.96 9.56636 50.2675 10.5359C49.575 11.5054 48.6451 12.2275 47.4777 12.7024L51.6624 20.122C51.7217 20.2407 51.7514 20.3495 51.7514 20.4485C51.7514 20.6068 51.6921 20.7552 51.5733 20.8937C51.4546 21.0124 51.3062 21.0717 51.1282 21.0717H47.8339C47.4777 21.0717 47.2106 20.9827 47.0325 20.8046C46.8545 20.6068 46.7259 20.4287 46.6467 20.2704L43.0259 13.474H39.4348V20.3298C39.4348 20.5474 39.3656 20.7255 39.2271 20.864C39.0886 21.0025 38.9105 21.0717 38.6929 21.0717H35.4579ZM39.4348 9.70486H43.2337C44.3219 9.70486 45.1232 9.45754 45.6376 8.9629C46.1719 8.46826 46.439 7.77576 46.439 6.88541C46.439 5.99505 46.1818 5.29266 45.6673 4.77824C45.1529 4.26381 44.3417 4.00659 43.2337 4.00659H39.4348V9.70486Z" fill="#01CC8E"/>
<path d="M63.1097 21.3685C61.3092 21.3685 59.756 21.0717 58.4502 20.4782C57.1443 19.8846 56.1254 18.9942 55.3933 17.8071C54.6612 16.6002 54.2655 15.0866 54.2062 13.2663C54.1864 12.4155 54.1765 11.5746 54.1765 10.7436C54.1765 9.89283 54.1864 9.03215 54.2062 8.16158C54.2655 6.38087 54.6612 4.88706 55.3933 3.68013C56.1451 2.45342 57.174 1.53339 58.4799 0.920033C59.8055 0.306678 61.3488 0 63.1097 0C64.8508 0 66.3743 0.306678 67.6802 0.920033C69.0058 1.53339 70.0446 2.45342 70.7964 3.68013C71.5483 4.88706 71.944 6.38087 71.9836 8.16158C72.0231 9.03215 72.0429 9.89283 72.0429 10.7436C72.0429 11.5746 72.0231 12.4155 71.9836 13.2663C71.9242 15.0866 71.5285 16.6002 70.7964 17.8071C70.0644 18.9942 69.0454 19.8846 67.7395 20.4782C66.4337 21.0717 64.8904 21.3685 63.1097 21.3685ZM63.1097 17.54C64.2573 17.54 65.1971 17.1937 65.9292 16.5012C66.681 15.789 67.0767 14.6612 67.1163 13.1179C67.1559 12.2473 67.1757 11.4361 67.1757 10.6843C67.1757 9.91261 67.1559 9.1014 67.1163 8.25062C67.0965 7.22176 66.9085 6.38087 66.5524 5.72795C66.1963 5.07502 65.7214 4.60017 65.1278 4.30338C64.554 3.98681 63.8813 3.82852 63.1097 3.82852C62.3381 3.82852 61.6555 3.98681 61.0619 4.30338C60.4683 4.60017 59.9935 5.07502 59.6373 5.72795C59.301 6.38087 59.113 7.22176 59.0734 8.25062C59.0536 9.1014 59.0437 9.91261 59.0437 10.6843C59.0437 11.4361 59.0536 12.2473 59.0734 13.1179C59.1328 14.6612 59.5285 15.789 60.2606 16.5012C60.9926 17.1937 61.9423 17.54 63.1097 17.54Z" fill="#01CC8E"/>
<path d="M13.8098 90C11.9499 90 10.3671 89.6933 9.06124 89.08C7.77517 88.4468 6.77599 87.5367 6.06371 86.3495C5.35143 85.1426 4.95571 83.6785 4.87657 81.9571C4.85678 81.1459 4.84689 80.2754 4.84689 79.3454C4.84689 78.4155 4.85678 77.5251 4.87657 76.6744C4.95571 74.9728 5.35143 73.5284 6.06371 72.3413C6.79578 71.1344 7.81474 70.2143 9.12059 69.5812C10.4264 68.9481 11.9895 68.6315 13.8098 68.6315C15.1354 68.6315 16.3424 68.7997 17.4306 69.136C18.5188 69.4724 19.4586 69.9571 20.25 70.5903C21.0415 71.2234 21.6548 71.9654 22.0901 72.8162C22.5254 73.6669 22.7628 74.6167 22.8024 75.6653C22.8024 75.8434 22.7331 75.9918 22.5946 76.1105C22.4759 76.2292 22.3275 76.2885 22.1494 76.2885H18.7661C18.5287 76.2885 18.3407 76.2292 18.2022 76.1105C18.0637 75.9918 17.9549 75.7939 17.8757 75.5169C17.579 74.3495 17.0843 73.5482 16.3918 73.1129C15.6993 72.6777 14.8386 72.46 13.8098 72.46C12.5831 72.46 11.6136 72.7964 10.9013 73.4691C10.189 74.1418 9.8032 75.2597 9.74384 76.8228C9.68449 78.4452 9.68449 80.1072 9.74384 81.8087C9.8032 83.3718 10.189 84.4897 10.9013 85.1624C11.6136 85.8351 12.5831 86.1715 13.8098 86.1715C14.8386 86.1715 15.6993 85.9538 16.3918 85.5185C17.1041 85.0635 17.5987 84.2622 17.8757 83.1146C17.9549 82.8178 18.0637 82.6199 18.2022 82.521C18.3407 82.4023 18.5287 82.3429 18.7661 82.3429H22.1494C22.3275 82.3429 22.4759 82.4023 22.5946 82.521C22.7331 82.6397 22.8024 82.7881 22.8024 82.9662C22.7628 84.0148 22.5254 84.9645 22.0901 85.8153C21.6548 86.6661 21.0415 87.4081 20.25 88.0412C19.4586 88.6744 18.5188 89.1591 17.4306 89.4955C16.3424 89.8318 15.1354 90 13.8098 90Z" fill="#01CC8E"/>
<path d="M26.879 89.7032C26.6614 89.7032 26.4833 89.634 26.3448 89.4955C26.2063 89.357 26.137 89.1789 26.137 88.9613V69.6702C26.137 69.4526 26.2063 69.2745 26.3448 69.136C26.4833 68.9975 26.6614 68.9283 26.879 68.9283H30.1139C30.3316 68.9283 30.5097 68.9975 30.6482 69.136C30.7867 69.2745 30.8559 69.4526 30.8559 69.6702V77.0899H38.8988V69.6702C38.8988 69.4526 38.968 69.2745 39.1065 69.136C39.245 68.9975 39.4231 68.9283 39.6407 68.9283H42.8757C43.0933 68.9283 43.2714 68.9975 43.4099 69.136C43.5484 69.2745 43.6177 69.4526 43.6177 69.6702V88.9613C43.6177 89.1789 43.5484 89.357 43.4099 89.4955C43.2714 89.634 43.0933 89.7032 42.8757 89.7032H39.6407C39.4231 89.7032 39.245 89.634 39.1065 89.4955C38.968 89.357 38.8988 89.1789 38.8988 88.9613V81.3042H30.8559V88.9613C30.8559 89.1789 30.7867 89.357 30.6482 89.4955C30.5097 89.634 30.3316 89.7032 30.1139 89.7032H26.879Z" fill="#01CC8E"/>
<path d="M46.8023 89.7032C46.6242 89.7032 46.4758 89.6439 46.3571 89.5251C46.2384 89.3866 46.1791 89.2383 46.1791 89.08C46.1791 88.981 46.1889 88.892 46.2087 88.8129L53.2722 69.7296C53.3316 69.5119 53.4503 69.324 53.6283 69.1657C53.8064 69.0074 54.0537 68.9283 54.3703 68.9283H58.1692C58.4857 68.9283 58.733 69.0074 58.9111 69.1657C59.0892 69.324 59.2079 69.5119 59.2673 69.7296L66.3307 88.8129C66.3505 88.892 66.3604 88.981 66.3604 89.08C66.3604 89.2383 66.3011 89.3866 66.1824 89.5251C66.0636 89.6439 65.9152 89.7032 65.7372 89.7032H62.6506C62.3538 89.7032 62.1362 89.634 61.9977 89.4955C61.8592 89.357 61.7702 89.2284 61.7306 89.1096L60.4544 85.7857H52.0851L50.8089 89.1096C50.7693 89.2284 50.6803 89.357 50.5418 89.4955C50.4033 89.634 50.1856 89.7032 49.8889 89.7032H46.8023ZM53.1832 81.9571H59.3266L56.2697 73.4097L53.1832 81.9571Z" fill="#01CC8E"/>
<path d="M72.0835 89.7032C71.8659 89.7032 71.6878 89.634 71.5493 89.4955C71.4108 89.357 71.3415 89.1789 71.3415 88.9613V73.0536H65.9401C65.7422 73.0536 65.574 72.9843 65.4355 72.8458C65.297 72.7073 65.2278 72.5392 65.2278 72.3413V69.6702C65.2278 69.4526 65.297 69.2745 65.4355 69.136C65.574 68.9975 65.7422 68.9283 65.9401 68.9283H81.4916C81.7092 68.9283 81.8873 68.9975 82.0258 69.136C82.1643 69.2745 82.2335 69.4526 82.2335 69.6702V72.3413C82.2335 72.5392 82.1643 72.7073 82.0258 72.8458C81.8873 72.9843 81.7092 73.0536 81.4916 73.0536H76.1198V88.9613C76.1198 89.1789 76.0505 89.357 75.912 89.4955C75.7735 89.634 75.5955 89.7032 75.3778 89.7032H72.0835Z" fill="#01CC8E"/>
<path d="M7.44718 60.0247C7.12072 60.0247 6.85361 59.906 6.64586 59.6686C6.46779 59.4312 6.40843 59.1492 6.46779 58.8228L10.2073 41.4608L4.7316 45.0668C4.40514 45.2745 4.09351 45.3487 3.79673 45.2894C3.49994 45.2003 3.27735 45.0074 3.12896 44.7106L0.0572371 39.235C-0.0317984 38.9382 -0.0169591 38.6265 0.101755 38.3001C0.250147 37.9439 0.487575 37.6768 0.814038 37.4988L13.3235 29.1739C13.5016 29.0552 13.6648 28.981 13.8132 28.9514C13.9616 28.892 14.1397 28.8623 14.3474 28.8623H22.7613C23.0877 28.8623 23.34 28.981 23.5181 29.2185C23.7258 29.4559 23.8 29.7378 23.7407 30.0643L17.5972 58.8228C17.5379 59.1492 17.3598 59.4312 17.063 59.6686C16.7959 59.906 16.4991 60.0247 16.1727 60.0247H7.44718Z" fill="white"/>
<path d="M36.5489 60.4699C33.7295 60.4402 31.3403 59.9357 29.3816 58.9563C27.4228 57.9769 25.9834 56.6265 25.0633 54.9052C24.1433 53.1838 23.8317 51.2399 24.1285 49.0734C24.2472 48.2721 24.4104 47.2927 24.6182 46.1352C24.8556 44.9777 25.1078 43.8203 25.375 42.6628C25.6421 41.4757 25.8943 40.4666 26.1318 39.6356C26.755 37.4691 27.7047 35.5548 28.9809 33.8928C30.2571 32.2011 31.9339 30.8656 34.0114 29.8862C36.0889 28.9068 38.6116 28.4171 41.5794 28.4171C44.2802 28.4171 46.6247 28.9068 48.6132 29.8862C50.6017 30.8656 52.0856 32.2011 53.065 33.8928C54.0741 35.5548 54.4154 37.4691 54.0889 39.6356C53.9702 40.4666 53.7921 41.4757 53.5547 42.6628C53.3172 43.8203 53.065 44.9777 52.7979 46.1352C52.5604 47.2927 52.323 48.2721 52.0856 49.0734C51.4623 51.2399 50.5275 53.1838 49.281 54.9052C48.0642 56.6265 46.417 57.9769 44.3395 58.9563C42.2917 59.9357 39.6948 60.4402 36.5489 60.4699ZM37.5283 51.7444C38.389 51.7444 39.0567 51.4773 39.5316 50.9431C40.0064 50.3792 40.3478 49.6818 40.5555 48.8508C40.7929 47.9901 41.0304 47.0256 41.2678 45.9571C41.5052 44.8887 41.7278 43.8203 41.9356 42.7519C42.173 41.6538 42.351 40.704 42.4698 39.9027C42.5885 39.1311 42.5291 38.4633 42.2917 37.8994C42.0839 37.3355 41.5349 37.0387 40.6445 37.0091C39.7542 37.0387 39.0864 37.3355 38.6412 37.8994C38.1961 38.4633 37.8696 39.1311 37.6618 39.9027C37.4541 40.704 37.2167 41.6538 36.9496 42.7519C36.7121 43.8203 36.4895 44.8887 36.2818 45.9571C36.074 47.0256 35.896 47.9901 35.7476 48.8508C35.6289 49.6818 35.6882 50.3792 35.9257 50.9431C36.1631 51.4773 36.6973 51.7444 37.5283 51.7444Z" fill="white"/>
<path d="M68.4591 60.4699C65.6396 60.4402 63.2505 59.9357 61.2917 58.9563C59.3329 57.9769 57.8935 56.6265 56.9735 54.9052C56.0535 53.1838 55.7418 51.2399 56.0386 49.0734C56.1573 48.2721 56.3206 47.2927 56.5283 46.1352C56.7657 44.9777 57.018 43.8203 57.2851 42.6628C57.5522 41.4757 57.8045 40.4666 58.0419 39.6356C58.6652 37.4691 59.6149 35.5548 60.8911 33.8928C62.1672 32.2011 63.8441 30.8656 65.9216 29.8862C67.9991 28.9068 70.5217 28.4171 73.4896 28.4171C76.1903 28.4171 78.5349 28.9068 80.5234 29.8862C82.5118 30.8656 83.9958 32.2011 84.9752 33.8928C85.9842 35.5548 86.3255 37.4691 85.9991 39.6356C85.8803 40.4666 85.7023 41.4757 85.4648 42.6628C85.2274 43.8203 84.9752 44.9777 84.708 46.1352C84.4706 47.2927 84.2332 48.2721 83.9958 49.0734C83.3725 51.2399 82.4376 53.1838 81.1911 54.9052C79.9743 56.6265 78.3272 57.9769 76.2497 58.9563C74.2019 59.9357 71.605 60.4402 68.4591 60.4699ZM69.4385 51.7444C70.2991 51.7444 70.9669 51.4773 71.4418 50.9431C71.9166 50.3792 72.2579 49.6818 72.4657 48.8508C72.7031 47.9901 72.9405 47.0256 73.178 45.9571C73.4154 44.8887 73.638 43.8203 73.8457 42.7519C74.0831 41.6538 74.2612 40.704 74.3799 39.9027C74.4986 39.1311 74.4393 38.4633 74.2019 37.8994C73.9941 37.3355 73.4451 37.0387 72.5547 37.0091C71.6643 37.0387 70.9966 37.3355 70.5514 37.8994C70.1062 38.4633 69.7798 39.1311 69.572 39.9027C69.3643 40.704 69.1268 41.6538 68.8597 42.7519C68.6223 43.8203 68.3997 44.8887 68.192 45.9571C67.9842 47.0256 67.8061 47.9901 67.6578 48.8508C67.539 49.6818 67.5984 50.3792 67.8358 50.9431C68.0732 51.4773 68.6075 51.7444 69.4385 51.7444Z" fill="white"/>
</svg>
